<?xml version="1.0" standalone="no"?>
<!DOCTYPE svg PUBLIC "-//W3C//DTD SVG 20010904//EN"
 "http://www.w3.org/TR/2001/REC-SVG-20010904/DTD/svg10.dtd">
<svg version="1.0" xmlns="http://www.w3.org/2000/svg"
 width="456.000000pt" height="456.000000pt" viewBox="0 0 456.000000 456.000000"
 preserveAspectRatio="xMidYMid meet">
<metadata>
Created by potrace 1.15, written by Peter Selinger 2001-2017
</metadata>
<g transform="translate(0.000000,456.000000) scale(0.100000,-0.100000)"
fill="#000000" stroke="none">
<path d="M2130 3764 c-135 -17 -390 -83 -390 -101 0 -4 42 -115 94 -247 52
-133 99 -253 105 -267 l10 -26 83 24 c159 48 387 42 538 -13 35 -13 65 -22 66
-21 1 1 54 121 117 267 96 222 112 266 99 274 -33 19 -188 67 -280 86 -95 20
-359 34 -442 24z"/>
<path d="M391 2523 l-391 -508 0 -1007 0 -1008 1303 0 1304 0 314 407 c173
224 359 466 414 538 l100 130 -75 -63 c-446 -377 -1053 -495 -1603 -312 -497
166 -878 542 -1050 1036 -123 354 -123 734 0 1088 19 55 41 113 49 128 18 36
35 78 30 78 -2 0 -180 -228 -395 -507z"/>
<path d="M2192 2999 c-297 -39 -538 -250 -613 -536 -28 -106 -28 -260 0 -366
66 -250 268 -453 517 -518 107 -28 261 -28 368 0 247 65 452 270 517 517 28
107 28 261 0 368 -65 247 -271 454 -513 515 -93 23 -196 31 -276 20z"/>
<path d="M886 2802 c-116 -304 -125 -656 -24 -970 24 -77 32 -92 46 -87 9 3
132 51 273 106 l255 101 -25 81 c-22 74 -25 99 -25 247 0 149 3 173 26 245 14
44 28 87 32 96 5 12 -44 37 -256 129 -145 62 -266 115 -270 117 -3 2 -18 -27
-32 -65z"/>
<path d="M3384 2713 l-260 -105 25 -82 c22 -73 25 -98 25 -246 0 -152 -2 -171
-27 -250 -16 -47 -29 -91 -30 -98 -1 -7 101 -57 261 -127 145 -63 265 -115
267 -115 8 0 56 141 79 231 67 264 58 545 -25 807 -17 51 -35 92 -42 91 -7 0
-129 -48 -273 -106z"/>
<path d="M1810 1193 c-62 -142 -114 -263 -117 -269 -10 -26 249 -103 412 -123
223 -27 470 1 684 79 l60 22 -73 147 c-40 80 -94 200 -120 267 l-48 120 -82
-25 c-73 -22 -98 -25 -246 -25 -149 0 -173 3 -245 26 -44 14 -87 28 -96 32
-13 6 -36 -39 -129 -251z"/>
</g>
</svg>
